# xmcd
#
# Track frame offsets: 
#        150
#        17836
#        31807
#        49043
#        67272
#        84128
#        101593
#        117873
#        133143
#        146879
#        161837
#        174439
#        188685
#
# Disc length: 2803 seconds
#
# Revision: 1
# Processed by: cddbd v1.5.2PL0 Copyright (c) Steve Scherf et al.
# Submitted via: ExactAudioCopy v1.3
#
DISCID=b00af10d
DTITLE=Lee Kernaghan - The New Bush
DYEAR=2006
DGENRE=Country
TTITLE0=Where I Come From
TTITLE1=Listen To The Radio
TTITLE2=The New Bush
TTITLE3=Diamantina Dream
TTITLE4=Love Shack
TTITLE5=Western World
TTITLE6=I'll Remember You
TTITLE7=Livin' In Australia
TTITLE8=Little Men
TTITLE9=Like Angels
TTITLE10=On The Beach
TTITLE11=When Country Comes
TTITLE12=Close As A Whisper (The Gift)
EXTD=
EXTT0=
EXTT1=
EXTT2=
EXTT3=
EXTT4=
EXTT5=
EXTT6=
EXTT7=
EXTT8=
EXTT9=
EXTT10=
EXTT11=
EXTT12=
PLAYORDER=
